<svg data-v-423bf9ae="" xmlns="http://www.w3.org/2000/svg" viewBox="0 0 406 112" class="iconLeft"><!----><defs data-v-423bf9ae=""><linearGradient data-v-423bf9ae="" gradientTransform="rotate(25)" id="d76b5614-3551-4a80-8dc1-9b88eea86836" x1="0%" y1="0%" x2="100%" y2="0%"><stop data-v-423bf9ae="" offset="0%" style="stop-color: rgb(57, 94, 202); stop-opacity: 1;"></stop><stop data-v-423bf9ae="" offset="100%" style="stop-color: rgb(132, 139, 216); stop-opacity: 1;"></stop></linearGradient></defs><!----><g data-v-423bf9ae="" id="68e6dc4c-f671-49e1-8581-8a2666c02ded" fill="#ffffff" transform="matrix(4.243281654165035,0,0,4.243281654165035,129.7108216502077,14.225993003270588)"><path d="M3.95 13.93L3.95 13.93Q3.11 13.93 2.36 13.64L2.36 13.64L2.36 13.64Q1.61 13.36 1.04 12.63L1.04 12.63L1.04 12.63Q0.48 11.90 0.33 10.66L0.33 10.66L2.26 9.97L2.26 9.97Q2.41 10.96 2.84 11.47L2.84 11.47L2.84 11.47Q3.28 11.97 3.91 11.97L3.91 11.97L3.91 11.97Q4.40 11.97 4.68 11.67L4.68 11.67L4.68 11.67Q4.96 11.36 4.96 10.75L4.96 10.75L4.96 10.75Q4.96 10.30 4.77 10.00L4.77 10.00L4.77 10.00Q4.58 9.69 4.27 9.47L4.27 9.47L4.27 9.47Q3.96 9.26 3.35 8.92L3.35 8.92L3.35 8.92Q3.27 8.87 3.20 8.84L3.20 8.84L3.20 8.84Q3.12 8.80 3.07 8.76L3.07 8.76L3.07 8.76Q2.30 8.33 1.83 8.00L1.83 8.00L1.83 8.00Q1.35 7.66 0.99 7.10L0.99 7.10L0.99 7.10Q0.64 6.54 0.64 5.74L0.64 5.74L0.64 5.74Q0.64 4.25 1.42 3.46L1.42 3.46L1.42 3.46Q2.20 2.67 3.79 2.67L3.79 2.67L3.79 2.67Q4.94 2.67 5.86 3.25L5.86 3.25L5.86 3.25Q6.78 3.83 7.05 5.31L7.05 5.31L5.28 5.98L5.28 5.98Q5.14 5.26 4.81 4.89L4.81 4.89L4.81 4.89Q4.48 4.52 3.88 4.52L3.88 4.52L3.88 4.52Q3.38 4.52 3.12 4.79L3.12 4.79L3.12 4.79Q2.86 5.05 2.86 5.46L2.86 5.46L2.86 5.46Q2.86 5.77 3.05 6.01L3.05 6.01L3.05 6.01Q3.24 6.25 3.54 6.44L3.54 6.44L3.54 6.44Q3.83 6.62 4.36 6.90L4.36 6.90L4.36 6.90Q4.87 7.17 5.13 7.31L5.13 7.31L5.13 7.31Q5.74 7.67 6.20 8.07L6.20 8.07L6.20 8.07Q6.65 8.46 6.97 9.10L6.97 9.10L6.97 9.10Q7.28 9.73 7.28 10.62L7.28 10.62L7.28 10.62Q7.28 11.64 6.88 12.39L6.88 12.39L6.88 12.39Q6.49 13.13 5.74 13.53L5.74 13.53L5.74 13.53Q4.98 13.93 3.95 13.93L3.95 13.93ZM9.78 16.81L9.78 16.81Q9.26 16.81 8.92 16.75L8.92 16.75L8.92 16.75Q8.58 16.69 8.26 16.57L8.26 16.57L8.69 15.10L8.69 15.10Q9.02 15.19 9.39 15.19L9.39 15.19L9.39 15.19Q9.93 15.19 10.19 14.85L10.19 14.85L10.19 14.85Q10.46 14.51 10.58 13.78L10.58 13.78L9.88 13.78L7.72 5.63L10.12 5.63L10.83 9.24L11.24 11.89L11.26 11.89L11.67 9.24L12.37 5.63L14.75 5.63L12.61 13.78L12.61 13.78Q11.81 16.81 9.78 16.81L9.78 16.81ZM15.61 13.78L15.61 5.63L17.76 5.63L17.87 6.87L17.97 6.87L17.97 6.87Q18.26 6.21 18.78 5.84L18.78 5.84L18.78 5.84Q19.30 5.48 20.02 5.48L20.02 5.48L20.02 5.48Q20.69 5.48 21.21 5.82L21.21 5.82L21.21 5.82Q21.73 6.17 22.02 6.81L22.02 6.81L22.02 6.81Q22.31 7.44 22.31 8.29L22.31 8.29L22.31 13.78L19.99 13.78L19.99 8.53L19.99 8.53Q19.99 7.87 19.76 7.57L19.76 7.57L19.76 7.57Q19.52 7.27 19.05 7.27L19.05 7.27L19.05 7.27Q18.53 7.27 18.23 7.67L18.23 7.67L18.23 7.67Q17.94 8.07 17.94 8.79L17.94 8.79L17.94 13.78L15.61 13.78ZM26.71 13.96L26.71 13.96Q25.55 13.96 24.79 13.39L24.79 13.39L24.79 13.39Q24.04 12.82 23.68 11.87L23.68 11.87L23.68 11.87Q23.32 10.92 23.32 9.73L23.32 9.73L23.32 9.73Q23.32 8.51 23.67 7.55L23.67 7.55L23.67 7.55Q24.03 6.60 24.79 6.04L24.79 6.04L24.79 6.04Q25.55 5.48 26.71 5.48L26.71 5.48L26.71 5.48Q28.05 5.48 28.80 6.16L28.80 6.16L28.80 6.16Q29.54 6.85 29.85 8.26L29.85 8.26L27.95 8.68L27.95 8.68Q27.86 7.94 27.59 7.57L27.59 7.57L27.59 7.57Q27.32 7.20 26.85 7.20L26.85 7.20L26.85 7.20Q26.17 7.20 25.89 7.88L25.89 7.88L25.89 7.88Q25.60 8.55 25.60 9.75L25.60 9.75L25.60 9.75Q25.60 10.91 25.89 11.56L25.89 11.56L25.89 11.56Q26.17 12.22 26.85 12.22L26.85 12.22L26.85 12.22Q27.31 12.22 27.58 11.84L27.58 11.84L27.58 11.84Q27.84 11.47 27.95 10.74L27.95 10.74L29.75 11.09L29.75 11.09Q29.52 12.58 28.77 13.27L28.77 13.27L28.77 13.27Q28.02 13.96 26.71 13.96L26.71 13.96ZM32.64 13.78L30.21 2.80L32.70 2.80L34.25 11.55L34.35 11.55L35.78 2.80L38.25 2.80L35.82 13.78L32.64 13.78ZM39.28 4.60L39.28 2.80L41.60 2.80L41.60 4.60L39.28 4.60ZM39.26 13.78L39.26 5.63L41.60 5.63L41.60 13.78L39.26 13.78ZM47.51 2.80L49.85 2.80L49.85 13.78L47.72 13.78L47.63 12.56L47.56 12.56L47.56 12.56Q47.37 13.19 46.83 13.58L46.83 13.58L46.83 13.58Q46.30 13.96 45.62 13.96L45.62 13.96L45.62 13.96Q44.78 13.96 44.15 13.49L44.15 13.49L44.15 13.49Q43.51 13.02 43.16 12.07L43.16 12.07L43.16 12.07Q42.80 11.12 42.80 9.71L42.80 9.71L42.80 9.71Q42.80 8.28 43.15 7.33L43.15 7.33L43.15 7.33Q43.50 6.38 44.13 5.93L44.13 5.93L44.13 5.93Q44.75 5.48 45.57 5.48L45.57 5.48L45.57 5.48Q46.24 5.48 46.73 5.85L46.73 5.85L46.73 5.85Q47.22 6.23 47.44 6.89L47.44 6.89L47.51 6.89L47.51 2.80ZM46.37 12.01L46.37 12.01Q46.94 12.01 47.24 11.41L47.24 11.41L47.24 11.41Q47.55 10.81 47.55 9.69L47.55 9.69L47.55 9.69Q47.55 8.61 47.24 8.02L47.24 8.02L47.24 8.02Q46.94 7.43 46.37 7.43L46.37 7.43L46.37 7.43Q45.81 7.43 45.48 8.00L45.48 8.00L45.48 8.00Q45.14 8.57 45.14 9.69L45.14 9.69L45.14 9.69Q45.14 10.85 45.48 11.43L45.48 11.43L45.48 11.43Q45.81 12.01 46.37 12.01L46.37 12.01ZM54.65 12.13L54.65 12.13Q55.05 12.13 55.34 11.93L55.34 11.93L55.34 11.93Q55.62 11.74 55.81 11.33L55.81 11.33L57.46 11.83L57.46 11.83Q57.08 12.99 56.33 13.47L56.33 13.47L56.33 13.47Q55.59 13.95 54.53 13.95L54.53 13.95L54.53 13.95Q53.50 13.95 52.70 13.47L52.70 13.47L52.70 13.47Q51.90 12.98 51.45 12.03L51.45 12.03L51.45 12.03Q51.00 11.09 51.00 9.75L51.00 9.75L51.00 9.75Q51.00 7.75 51.82 6.61L51.82 6.61L51.82 6.61Q52.65 5.48 54.33 5.48L54.33 5.48L54.33 5.48Q55.94 5.48 56.72 6.48L56.72 6.48L56.72 6.48Q57.51 7.49 57.51 9.25L57.51 9.25L57.51 9.25Q57.51 9.88 57.44 10.26L57.44 10.26L53.24 10.26L53.24 10.26Q53.23 10.82 53.41 11.25L53.41 11.25L53.41 11.25Q53.58 11.67 53.90 11.90L53.90 11.90L53.90 11.90Q54.23 12.13 54.65 12.13L54.65 12.13ZM54.42 7.21L54.42 7.21Q53.32 7.21 53.28 8.82L53.28 8.82L55.58 8.82L55.58 8.82Q55.54 8.05 55.30 7.63L55.30 7.63L55.30 7.63Q55.05 7.21 54.42 7.21L54.42 7.21ZM61.65 13.96L61.65 13.96Q60.03 13.96 59.13 12.91L59.13 12.91L59.13 12.91Q58.24 11.85 58.24 9.73L58.24 9.73L58.24 9.73Q58.24 7.57 59.13 6.52L59.13 6.52L59.13 6.52Q60.03 5.48 61.65 5.48L61.65 5.48L61.65 5.48Q63.29 5.48 64.17 6.52L64.17 6.52L64.17 6.52Q65.06 7.57 65.06 9.73L65.06 9.73L65.06 9.73Q65.06 11.86 64.17 12.91L64.17 12.91L64.17 12.91Q63.28 13.96 61.65 13.96L61.65 13.96ZM61.63 12.22L61.63 12.22Q62.03 12.22 62.29 12.00L62.29 12.00L62.29 12.00Q62.55 11.79 62.69 11.24L62.69 11.24L62.69 11.24Q62.84 10.69 62.84 9.72L62.84 9.72L62.84 9.72Q62.84 8.73 62.69 8.18L62.69 8.18L62.69 8.18Q62.55 7.62 62.29 7.41L62.29 7.41L62.29 7.41Q62.03 7.20 61.63 7.20L61.63 7.20L61.63 7.20Q61.26 7.20 61.00 7.41L61.00 7.41L61.00 7.41Q60.75 7.62 60.61 8.18L60.61 8.18L60.61 8.18Q60.47 8.73 60.47 9.72L60.47 9.72L60.47 9.72Q60.47 10.68 60.61 11.23L60.61 11.23L60.61 11.23Q60.75 11.79 61.00 12.00L61.00 12.00L61.00 12.00Q61.26 12.22 61.63 12.22L61.63 12.22Z"></path></g><!----><g data-v-423bf9ae="" id="a5722564-1941-41bf-b0a1-6a472b3b01ea" transform="matrix(1.1111111111111112,0,0,1.1111111111111112,0.44444444444444287,0.44444444444444287)" stroke="none" fill="#ffffff"><path d="M14.66 85.376C5.2 75.928 0 63.379 0 50 0 22.437 22.424 0 50 0l6.25 6.25L50 12.5c-20.679 0-37.5 16.821-37.5 37.5 0 10.034 3.906 19.458 10.998 26.538l-7.678 1.001-1.16 7.837zM50 100l-6.25-6.226L50 87.5c20.679 0 37.5-16.821 37.5-37.5 0-10.01-3.906-19.434-11.011-26.525l7.69-1.014 1.147-7.824C94.787 24.084 100 36.646 100 50c0 27.563-22.437 50-50 50z"></path></g><!----></svg>